<?xml version="1.0" encoding="utf-8"?>
<!-- Generator: Adobe Illustrator 27.3.1, SVG Export Plug-In . SVG Version: 6.00 Build 0)  -->
<svg version="1.1" id="Слой_1" xmlns="http://www.w3.org/2000/svg" xmlns:xlink="http://www.w3.org/1999/xlink" x="0px" y="0px"
	 viewBox="0 0 19 23" style="enable-background:new 0 0 19 23;" xml:space="preserve">
<style type="text/css">
	.st0{fill:#270813;}
</style>
<g>
	<g>
		<path class="st0" d="M18.3,19.3L17.2,9.1c0-0.6-0.3-1.1-0.7-1.5C16.1,7.2,15.5,7,15,7H4.1C3.6,7,3,7.2,2.6,7.6
			C2.2,8,1.9,8.6,1.9,9.1L0.8,19.3c-0.1,0.7,0.1,1.4,0.6,2C1.8,21.7,2.4,22,3,22h13.1c0.6,0,1.2-0.3,1.6-0.8
			C18.2,20.7,18.4,20,18.3,19.3L18.3,19.3z M16.6,20.3c-0.1,0.2-0.3,0.2-0.5,0.2H3c-0.2,0-0.4-0.1-0.5-0.2c-0.2-0.2-0.3-0.5-0.2-0.8
			L3.4,9.3c0-0.2,0.1-0.4,0.2-0.5c0.1-0.1,0.3-0.2,0.5-0.3H15c0.2,0,0.4,0.1,0.5,0.3c0.1,0.1,0.2,0.3,0.2,0.5l1.1,10.1
			C16.9,19.7,16.8,20,16.6,20.3L16.6,20.3z"/>
		<path class="st0" d="M16.1,22.2H3c-0.7,0-1.3-0.3-1.8-0.8c-0.5-0.6-0.8-1.4-0.7-2.1L1.7,9.1c0-0.6,0.3-1.2,0.8-1.6
			c0.5-0.4,1-0.7,1.7-0.7l10.8,0c0.6,0,1.2,0.3,1.7,0.7c0.5,0.4,0.7,1,0.8,1.6l1.1,10.1c0.1,0.8-0.2,1.5-0.7,2.1
			C17.4,21.9,16.8,22.2,16.1,22.2z M15,7.2l-10.8,0c-0.5,0-1,0.2-1.4,0.6C2.4,8.1,2.1,8.6,2.1,9.2L1,19.3c-0.1,0.7,0.1,1.3,0.6,1.8
			c0.4,0.4,0.9,0.7,1.5,0.7h13.1c0.6,0,1.1-0.2,1.5-0.7c0.4-0.5,0.6-1.2,0.6-1.8l0,0L17,9.2c0-0.5-0.3-1-0.7-1.4
			C16,7.4,15.5,7.2,15,7.2z M3,20.7c-0.3,0-0.5-0.1-0.7-0.3c-0.2-0.3-0.3-0.6-0.3-1L3.2,9.3c0-0.2,0.1-0.5,0.3-0.7
			c0.2-0.2,0.4-0.3,0.7-0.3l10.9,0c0.3,0,0.5,0.1,0.7,0.3c0.2,0.2,0.3,0.4,0.3,0.7l1.1,10.1c0,0.3-0.1,0.7-0.3,1
			c-0.2,0.2-0.4,0.3-0.7,0.3H3z M15,8.7l-10.8,0C4,8.7,3.9,8.8,3.8,8.9C3.6,9,3.6,9.2,3.6,9.3L2.5,19.5c0,0.2,0,0.5,0.2,0.7
			c0.1,0.1,0.2,0.2,0.4,0.2h13.1c0.1,0,0.3-0.1,0.3-0.2l0,0c0.2-0.2,0.2-0.4,0.2-0.7L15.5,9.3c0-0.2-0.1-0.3-0.2-0.4
			C15.3,8.8,15.1,8.7,15,8.7z"/>
	</g>
	<g>
		<path class="st0" d="M5.8,6.2C6,6.2,6.2,6.2,6.3,6c0.1-0.1,0.2-0.3,0.2-0.5c0-1.1,0.6-2.1,1.5-2.6c0.9-0.5,2.1-0.5,3,0
			c0.9,0.5,1.5,1.5,1.5,2.6c0,0.3,0.1,0.5,0.4,0.6c0.2,0.1,0.5,0.1,0.8,0c0.2-0.1,0.4-0.4,0.4-0.6c0-1.6-0.9-3.1-2.2-3.9
			c-1.4-0.8-3.1-0.8-4.5,0C5.9,2.4,5.1,3.9,5.1,5.5c0,0.2,0.1,0.4,0.2,0.5C5.4,6.2,5.6,6.2,5.8,6.2z"/>
		<path class="st0" d="M5.8,6.5c-0.2,0-0.5-0.1-0.7-0.3C5,6,4.9,5.8,4.9,5.5c0-1.7,0.9-3.2,2.4-4.1c1.4-0.8,3.3-0.8,4.7,0
			c1.5,0.8,2.4,2.4,2.4,4.1c0,0.3-0.2,0.7-0.5,0.8c-0.3,0.2-0.7,0.2-0.9,0c-0.3-0.2-0.5-0.5-0.5-0.8c0-1-0.5-1.9-1.4-2.4
			c-0.9-0.5-1.9-0.5-2.8,0C7.3,3.6,6.8,4.5,6.8,5.5c0,0.2-0.1,0.5-0.3,0.7C6.3,6.4,6.1,6.5,5.8,6.5z M9.6,1.2
			c-0.7,0-1.5,0.2-2.2,0.6C6.1,2.5,5.3,4,5.3,5.5c0,0.1,0.1,0.3,0.2,0.4c0.2,0.2,0.6,0.2,0.8,0c0.1-0.1,0.2-0.2,0.2-0.4
			C6.4,4.4,7,3.3,8,2.7c1-0.6,2.2-0.6,3.2,0c1,0.6,1.6,1.6,1.6,2.8c0,0.2,0.1,0.4,0.3,0.5c0.2,0.1,0.4,0.1,0.6,0
			c0.2-0.1,0.3-0.3,0.3-0.5c0-1.5-0.8-3-2.1-3.7C11,1.4,10.3,1.2,9.6,1.2z"/>
	</g>
</g>
</svg>
