<?xml version="1.0" encoding="utf-8"?>
<!-- Generator: Adobe Illustrator 27.3.1, SVG Export Plug-In . SVG Version: 6.00 Build 0)  -->
<svg version="1.1" id="Слой_1" xmlns="http://www.w3.org/2000/svg" xmlns:xlink="http://www.w3.org/1999/xlink" x="0px" y="0px"
	 viewBox="0 0 341 275" style="enable-background:new 0 0 341 275;" xml:space="preserve">
<style type="text/css">
	.st0{fill:#FFC100;}
</style>
<g>
	<path class="st0" d="M105.8,274.5c-22.4,0-45.4-3-64.7-15C2.7,235.4-6.2,183.6,4.7,144.9C19.2,94.6,55.4,54.7,99.1,40.6
		c11.9-3.7,24.3-8.1,37.4-12.7l5.8-2.1c14.6-5.2,30.2-10.6,46.1-15.1c37.7-10.7,66.9-12.9,91.9-7c18,4.5,34.9,15.7,46.4,30.8
		c12.3,16.1,16.4,34.2,11.8,50.9l0,0c-4.2,15.7-15.2,27.7-25.4,37.2c-3.5,3.3-7.2,6.5-10.7,9.7c-8.2,7.3-16.7,14.8-23.6,23.2
		c-9.9,12-17.2,26.4-24.2,40.3l-0.2,0.4c-1.1,2.2-2.2,4.4-3.4,6.6c-8,15.7-17.1,32-31.3,44.1c-23.8,20.4-56.4,24.8-88.1,26.7
		C123.3,274.1,114.6,274.5,105.8,274.5z M251.5,2.5c-18.1,0-38.5,3.3-62.4,10.1c-15.8,4.5-31.4,9.9-46,15.1l-5.8,2.1
		c-13.1,4.7-25.5,9.1-37.5,12.7c-43.1,13.9-78.8,53.4-93.1,103c-10.8,38-2,88.8,35.5,112.4c26.4,16.4,60,15.7,89.5,13.7
		c31.4-1.8,63.6-6.2,86.9-26.2c14-11.8,22.9-28,30.8-43.4c1.1-2.2,2.2-4.4,3.4-6.6l0.2-0.4c7.1-14,14.4-28.5,24.4-40.7
		c7-8.5,15.5-16,23.8-23.4c3.6-3.2,7.3-6.5,10.7-9.7c10-9.4,20.7-21.1,24.8-36.3l0,0c4.5-16.1,0.4-33.5-11.5-49.1
		C314,21,297.5,10,279.9,5.6C271.1,3.6,261.6,2.5,251.5,2.5z"/>
</g>
</svg>
