<?xml version="1.0" encoding="utf-8"?>
<!-- Generator: Adobe Illustrator 27.3.1, SVG Export Plug-In . SVG Version: 6.00 Build 0)  -->
<svg version="1.1" id="Слой_1" xmlns="http://www.w3.org/2000/svg" xmlns:xlink="http://www.w3.org/1999/xlink" x="0px" y="0px"
	 viewBox="0 0 443 298" style="enable-background:new 0 0 443 298;" xml:space="preserve">
<style type="text/css">
	.st0{fill:#FFC100;}
</style>
<g>
	<path class="st0" d="M274.5,297c-23.1,0-45.4-4.6-65.3-13.6c-13.6-6.4-28.2-12.5-43.7-18.9c-2.4-1-4.6-1.9-6.9-2.9
		c-17.3-7.2-35.7-15-53.5-23.8c-42.4-21-70.3-42.6-88-68.2C4.5,151.1-1.5,127.3,0.4,104.5C2.5,80.1,13.4,60.6,31,49.4l0.5,0.8
		L31,49.4c16.5-10.6,36-12.4,52.9-12.8c5.8-0.1,11.7-0.1,17.5,0c13.3,0.1,26.9,0.3,39.9-1.6c18.5-2.7,36.7-9.7,54.3-16.5
		c3-1.1,5.9-2.3,8.9-3.4C224.3,7.6,245.6,0.3,268.1,1c37.8,1,70.6,23.4,100.5,47.5c28.3,22.3,59.4,49.2,69.9,86
		c14.8,52.6-19.1,106.3-60.3,132.1c-25.5,15.9-54.3,26-83.1,29.4C288.2,296.6,281.3,297,274.5,297z M91.4,38.5c-2.5,0-5,0-7.5,0.1
		c-16.6,0.3-35.8,2.1-51.9,12.5l0,0C15,61.9,4.4,80.9,2.4,104.7c-1.9,22.4,4,45.7,16.3,63.9c17.4,25.3,45.1,46.7,87.2,67.5
		c17.8,8.8,36.1,16.6,53.4,23.7c2.3,1,4.6,1.9,6.9,2.9c15.6,6.5,30.2,12.6,43.9,19c50,22.5,114.1,16.1,167.1-16.9
		c40.5-25.4,74-78.1,59.4-129.8c-10.4-36.2-41.2-62.8-69.2-84.9C337.8,26.2,305.3,4,268.1,3c-22.2-0.7-43.2,6.5-62.9,14
		c-2.9,1.1-5.9,2.2-8.8,3.4c-17.7,6.8-36,13.9-54.7,16.6c-13.1,1.9-26.9,1.8-40.2,1.6C98.1,38.6,94.8,38.5,91.4,38.5z"/>
</g>
</svg>
