<?xml version="1.0" encoding="utf-8"?>
<!-- Generator: Adobe Illustrator 27.3.1, SVG Export Plug-In . SVG Version: 6.00 Build 0)  -->
<svg version="1.1" id="Слой_1" xmlns="http://www.w3.org/2000/svg" xmlns:xlink="http://www.w3.org/1999/xlink" x="0px" y="0px"
	 viewBox="0 0 255 143" style="enable-background:new 0 0 255 143;" xml:space="preserve">
<style type="text/css">
	.st0{fill:#FFC100;}
</style>
<g>
	<path class="st0" d="M145.3,142.9c-8.4,0-16.5-1-24.1-2.9c-7.9-2.2-16.3-4.1-25.2-6.2l-4-0.9c-9.9-2.3-20.5-4.8-30.8-7.9
		c-24.4-7.3-40.5-15.8-50.7-26.9C2.9,89.6-0.7,77.7,0.9,66.3c1.5-11.2,7.6-20.8,17.2-27v0c9.5-6.2,20.6-8.3,30.3-9.6
		c3.3-0.4,6.7-0.8,10-1.1c7.7-0.8,15.5-1.7,23-3.4c10.6-2.5,21-7.1,31.1-11.5l0.3-0.1c1.6-0.7,3.2-1.4,4.7-2.1
		c11.4-4.9,23.6-9.8,36.5-11c21.7-2,40.6,6.6,57.8,16.2c7.8,4.2,16.8,9.4,24.3,15.5c8.1,6.7,13.4,13.6,16.1,21.1
		c3.9,11,2.3,23.5-4.6,36.3c-6.4,11.9-16.9,22.9-29.7,31C195.4,135.1,169.2,142.9,145.3,142.9z M19.2,41C10.1,46.9,4.3,56,2.9,66.5
		c-1.5,10.9,1.9,22.1,9.1,30.1c9.9,10.8,25.8,19.2,49.8,26.4c10.2,3,20.8,5.6,30.7,7.9l4,0.9c8.9,2.1,17.4,4,25.3,6.2
		c28.6,7.5,65.1,0.2,95.4-19c12.4-8,22.7-18.7,29-30.3c6.6-12.3,8.1-24.3,4.4-34.7c-2.6-7.2-7.7-13.8-15.5-20.3
		c-7.3-6-16.2-11.1-23.9-15.3c-17-9.4-35.5-17.9-56.7-15.9c-12.6,1.1-24.7,6-35.9,10.8c-1.6,0.7-3.1,1.4-4.7,2.1l-0.3,0.1
		c-10.1,4.4-20.6,9-31.5,11.6c-7.6,1.8-15.5,2.6-23.1,3.5c-3.4,0.4-6.7,0.7-10,1.1C39.2,32.9,28.3,35,19.2,41L19.2,41z"/>
</g>
</svg>
