<?xml version="1.0" encoding="utf-8"?>
<!-- Generator: Adobe Illustrator 27.3.1, SVG Export Plug-In . SVG Version: 6.00 Build 0)  -->
<svg version="1.1" id="Слой_1" xmlns="http://www.w3.org/2000/svg" xmlns:xlink="http://www.w3.org/1999/xlink" x="0px" y="0px"
	 viewBox="0 0 303 319" style="enable-background:new 0 0 303 319;" xml:space="preserve">
<style type="text/css">
	.st0{fill:#FFC100;}
</style>
<g>
	<path class="st0" d="M200.1,318.4c-3.3,0-6.6-0.1-9.9-0.4c-52.1-4.8-98.1-32.9-120.1-73.3c-4.9-9.3-10.4-18.7-16.2-28.8l-4.1-7.1
		c-0.7-1.3-1.5-2.5-2.2-3.8c-8.3-14.1-16.3-28-23.4-42.4C6.6,127.6-1,99.4,0.1,73.6C1.2,55.2,9.3,36,21.8,22.2
		C35.3,7.2,52.2-0.3,69.5,1.1c16.2,1.2,30,9.7,41.3,17.9c4,2.9,7.9,5.9,11.5,8.7l0.3,0.2c8.6,6.6,17.5,13.5,26.9,18.7
		c13.4,7.3,28.6,11.7,43.4,16l0.7,0.2c1.2,0.3,2.5,0.7,3.8,1.1c1.2,0.4,2.5,0.7,3.7,1.1c16.1,4.7,34.5,10.8,49.2,22.6
		c24.4,19.6,34.9,50.8,42.6,81.6c7.5,28.9,14.6,62.1,3.2,91.7C280.8,299.7,238,318.4,200.1,318.4z M65.3,2.9
		c-15.2,0-30,7.2-42.1,20.6C11.1,37,3.2,55.8,2.1,73.7c-1.1,25.4,6.4,53.4,23.8,88C33,176,41,189.9,49.3,204
		c0.7,1.3,1.5,2.6,2.2,3.8l0.9,1.5l3.3,5.6c5.8,10.1,11.4,19.5,16.3,28.8c21.7,39.8,67.1,67.5,118.5,72.3
		c39.3,3.5,87.6-14.5,103.8-55.8c11.2-29,4.2-61.9-3.2-90.5c-7.6-30.5-18-61.4-42-80.6c-14.4-11.6-32.5-17.5-48.5-22.2
		c-1.2-0.3-2.5-0.7-3.8-1.1c-1.2-0.4-2.5-0.7-3.7-1.1l-0.7-0.2c-14.8-4.3-30.2-8.7-43.8-16.2c-9.6-5.3-18.5-12.2-27.1-18.9l-0.3-0.2
		c-3.6-2.8-7.5-5.8-11.5-8.7C98.5,12.6,85,4.2,69.3,3.1l0,0C68,3,66.6,2.9,65.3,2.9z"/>
</g>
</svg>
