<?xml version="1.0" encoding="utf-8"?>
<!-- Generator: Adobe Illustrator 27.3.1, SVG Export Plug-In . SVG Version: 6.00 Build 0)  -->
<svg version="1.1" id="Слой_1" xmlns="http://www.w3.org/2000/svg" xmlns:xlink="http://www.w3.org/1999/xlink" x="0px" y="0px"
	 viewBox="0 0 25 25" style="enable-background:new 0 0 25 25;" xml:space="preserve">
<style type="text/css">
	.st0{fill:#AE2456;}
</style>
<g>
	<path class="st0" d="M12.3,24.2v-0.1l-1.4-0.2C5,22.9,0.8,17.9,0.8,12c0-6.6,5.4-12,12-12s12,5.4,12,12c0,5.9-4.3,10.9-10.1,11.9
		l-1.4,0.2v0.1l-0.4-0.1L12.3,24.2z M12.8,2c-5.5,0-10,4.5-10,10c0,5,3.5,9.1,8.4,9.9v-7H8.7V12h2.5V9.8c0-1.5,0.6-2.4,1-2.9
		c0.5-0.5,1.3-1,2.7-1c0.4,0,0.9,0,1.3,0.1l0.9,0.1v2.5H16c-0.6,0-1,0.2-1.3,0.5c-0.3,0.3-0.3,0.8-0.3,1.1V12h2.8l-0.4,2.9h-2.3v7
		c4.9-0.8,8.4-4.9,8.4-9.9C22.8,6.5,18.3,2,12.8,2z"/>
</g>
</svg>
