<svg width="169" height="169" viewBox="0 0 169 169" fill="none" xmlns="http://www.w3.org/2000/svg">
<path d="M121.094 79.3339C118.887 77.6503 116.607 75.9109 115.874 73.6539C115.11 71.3023 115.943 68.4753 116.751 65.7537C117.445 63.4051 118.231 60.7536 117.465 59.6822C116.699 58.6108 113.871 58.5183 111.394 58.4553C108.567 58.3836 105.642 58.3086 103.667 56.8713C101.693 55.434 100.753 52.7123 99.8225 50.0656C98.9974 47.7153 98.0599 45.0529 96.7437 44.6247C95.5169 44.2261 93.2743 45.7823 91.2829 47.1494C88.9112 48.7781 86.4614 50.4633 83.9367 50.4633C81.412 50.4633 78.9614 48.7773 76.5905 47.1494C74.5991 45.7814 72.3462 44.23 71.1313 44.6247C69.8135 45.0512 68.876 47.7156 68.0509 50.0656C67.1205 52.7123 66.1583 55.4499 64.2059 56.8713C62.2544 58.2927 59.3055 58.3836 56.4795 58.4553C54.0114 58.5175 51.2148 58.5893 50.4185 59.6822C49.6221 60.7752 50.4185 63.4108 51.1224 65.7537C51.9292 68.4825 52.7638 71.3023 51.9993 73.6539C51.2675 75.9109 48.9866 77.6503 46.7793 79.3339C44.7775 80.8606 42.5078 82.5905 42.5078 84.0319C42.5078 85.4733 44.7774 87.2031 46.7793 88.7299C48.9866 90.4136 51.2667 92.153 51.9993 94.4099C52.7638 96.7616 51.93 99.5885 51.1224 102.31C50.428 104.659 49.642 107.319 50.4081 108.382C51.2045 109.475 54.0026 109.546 56.4708 109.608C59.2978 109.68 62.2227 109.755 64.1972 111.193C66.1719 112.63 67.1117 115.352 68.0421 117.998C68.8672 120.348 69.8047 123.011 71.1209 123.439C72.3406 123.834 74.5903 122.28 76.5818 120.914C78.9534 119.286 81.4033 117.6 83.928 117.6C86.4527 117.6 88.9033 119.287 91.2742 120.914C93.2671 122.284 95.5185 123.838 96.7334 123.439C98.0511 123.013 98.9887 120.348 99.8138 117.998C100.744 115.352 101.706 112.614 103.659 111.193C105.61 109.771 108.559 109.68 111.385 109.608C113.853 109.546 116.65 109.475 117.446 108.382C118.243 107.289 117.437 104.653 116.742 102.31C115.936 99.5814 115.101 96.7616 115.865 94.4099C116.597 92.153 118.878 90.4136 121.085 88.7299C123.096 87.2032 125.366 85.4733 125.366 84.0319C125.366 82.5905 123.096 80.8607 121.094 79.3339ZM91.0796 60.8175H94.6511V64.389H91.0796V60.8175ZM73.2224 55.4604H76.7938V59.0318H73.2224V55.4604ZM53.5793 80.4605H57.1508V84.0319H53.5793V80.4605ZM58.9365 103.675H55.3651V100.103H58.9365V103.675ZM58.9365 67.9604H62.508V71.5319H58.9365V67.9604ZM66.0794 94.7462H62.508V91.1748H66.0794V94.7462ZM71.4366 107.246H67.8652V103.675H71.4366V107.246ZM82.151 114.389H78.5795V110.818H82.151V114.389ZM92.8654 103.675H89.2939V100.103H92.8654V103.675ZM83.9367 98.3177C80.1477 98.3177 76.514 96.8126 73.8354 94.1332C71.156 91.4546 69.6509 87.8209 69.6509 84.0319C69.6509 80.2429 71.156 76.6092 73.8354 73.9306C76.514 71.2512 80.1477 69.7461 83.9367 69.7461C87.7257 69.7461 91.3594 71.2512 94.038 73.9306C96.7174 76.6092 98.2226 80.2429 98.2226 84.0319C98.2186 87.8195 96.7119 91.4507 94.0333 94.1285C91.3556 96.8071 87.7243 98.3138 83.9367 98.3177ZM105.365 96.532H101.794V92.9605H105.365V96.532ZM107.151 73.3176H103.58V69.7461H107.151V73.3176ZM114.294 87.6034H110.723V84.0319H114.294V87.6034Z" fill="#AE2456"/>
<path d="M83.9356 34.0321C70.6748 34.0321 57.9578 39.2999 48.5802 48.6767C39.2035 58.0541 33.9355 70.7727 33.9355 84.0319C33.9355 97.2912 39.2033 110.01 48.5802 119.387C57.9576 128.764 70.6763 134.032 83.9356 134.032C97.1948 134.032 109.913 128.764 119.291 119.387C128.668 110.01 133.936 97.2912 133.936 84.0319C133.92 70.7754 128.648 58.0665 119.274 48.693C109.901 39.3195 97.1924 34.0468 83.9351 34.0317L83.9356 34.0321ZM123.258 91.5712C121.571 92.857 119.658 94.3159 119.269 95.514C119.111 97.4863 119.421 99.4681 120.175 101.299C121.148 104.592 122.153 107.995 120.341 110.488C118.528 112.981 114.937 113.095 111.484 113.184H111.483C109.535 113.029 107.577 113.335 105.769 114.077C104.524 115.554 103.642 117.301 103.19 119.179C102.037 122.461 100.842 125.858 97.8332 126.833V126.832C97.3413 126.991 96.828 127.071 96.3114 127.07C93.9326 127.07 91.5577 125.439 89.2491 123.855C87.4259 122.604 85.3493 121.175 83.935 121.175C82.5207 121.175 80.4441 122.604 78.6096 123.862C75.8075 125.788 72.9153 127.778 70.0255 126.839C67.0273 125.866 65.8322 122.47 64.6787 119.188H64.6795C64.2283 117.31 63.3457 115.564 62.1029 114.086C60.2949 113.342 58.3378 113.032 56.3886 113.182C52.9351 113.095 49.3636 113.004 47.5293 110.488C45.6958 107.972 46.7242 104.595 47.6975 101.299C48.4501 99.4682 48.7602 97.4864 48.6024 95.5141C48.2133 94.3159 46.3009 92.857 44.6131 91.5712C41.8205 89.441 38.9347 87.2465 38.9347 84.0322C38.9347 80.8179 41.8207 78.6232 44.6115 76.4932C46.2992 75.2073 48.2118 73.7485 48.6007 72.5503C48.7586 70.5781 48.4485 68.5962 47.6951 66.7658C46.7217 63.4726 45.7165 60.0695 47.5293 57.5766C49.3421 55.0837 52.9328 54.9699 56.3861 54.8805H56.3869C58.3353 55.0319 60.2933 54.7234 62.1012 53.9788C63.3457 52.5016 64.2282 50.7549 64.6794 48.8768C65.833 45.5947 67.028 42.1978 70.0366 41.2229C72.9168 40.2822 75.8099 42.2784 78.6122 44.2108C80.4442 45.4712 82.5208 46.8894 83.9351 46.8894C85.3494 46.8894 87.4259 45.4608 89.2604 44.2108C92.0641 42.288 94.9589 40.2965 97.8446 41.2341C100.843 42.2075 102.038 45.6035 103.191 48.8856H103.191C103.642 50.7629 104.524 52.5096 105.767 53.9876C107.575 54.7314 109.532 55.0407 111.481 54.8908C114.935 54.9785 118.506 55.0694 120.341 57.5853C122.174 60.1013 121.146 63.4782 120.172 66.7746V66.7754C119.42 68.6049 119.11 70.5868 119.268 72.5591C119.657 73.7572 121.569 75.2162 123.257 76.5019C126.05 78.6234 128.935 80.8179 128.935 84.0322C128.935 87.2465 126.049 89.4412 123.259 91.5712L123.258 91.5712Z" fill="#AE2456"/>
<path d="M160.393 92.3668L160.77 87.4853L165.46 87.8479L165.639 85.5348L154.313 84.6593L154.134 86.9724L158.728 87.3275L158.351 92.2089L153.757 91.8538L153.578 94.1669L164.904 95.0424L165.083 92.7293L160.393 92.3668Z" fill="#AE2456"/>
<path d="M151.915 101.037C151.098 104.296 152.892 107.27 156.167 108.091C159.442 108.912 162.427 107.137 163.244 103.877C164.061 100.618 162.267 97.6446 158.992 96.8236C155.717 96.0026 152.732 97.7779 151.915 101.037ZM154.025 101.566C154.523 99.5797 156.472 98.5837 158.428 99.074C160.383 99.5642 161.631 101.362 161.133 103.348C160.631 105.35 158.687 106.331 156.731 105.841C154.776 105.35 153.523 103.568 154.025 101.566Z" fill="#AE2456"/>
<path d="M157.679 119.047C153.235 117.109 151.505 116.354 150.551 116.06L159.828 114.119L160.692 112.14L150.279 107.597L149.371 109.68C153.756 111.593 155.493 112.333 156.426 112.635L147.228 114.593L146.364 116.573L156.777 121.115L157.679 119.047Z" fill="#AE2456"/>
<path d="M151.386 130.075L155.22 123.849L145.547 117.892L141.713 124.118L143.498 125.217L146.115 120.967L148.336 122.334L146.18 125.836L147.924 126.91L150.08 123.408L152.219 124.725L149.601 128.976L151.386 130.075Z" fill="#AE2456"/>
<path d="M145.73 137.309C144.591 134.401 144.021 133.049 143.535 132.302C144.377 132.637 145.793 132.924 148.883 133.439L150.56 131.38L142.819 130.192L139.246 127.281L137.781 129.08L141.354 131.99L144.093 139.319L145.73 137.309Z" fill="#AE2456"/>
<path d="M128.224 138.469C126.109 140.205 125.932 142.234 127.17 143.743C128.063 144.831 129.454 145.139 130.561 144.52C130.13 145.205 130.03 146.219 130.913 147.295C132.08 148.717 133.785 148.601 135.653 147.068L139.042 144.287L131.835 135.505L128.224 138.469ZM135.99 144.225L134.394 145.534C133.714 146.093 132.972 146.122 132.424 145.454C131.866 144.774 132.05 144.064 132.73 143.506L134.325 142.197L135.99 144.225ZM133.209 140.836L131.366 142.349C130.525 143.039 129.605 143.028 129.006 142.298C128.438 141.605 128.617 140.714 129.482 140.003L131.3 138.511L133.209 140.836Z" fill="#AE2456"/>
<path d="M115.148 147.087L124.48 154.768L126.753 153.425L124.488 141.569L122.422 142.79C122.632 143.744 122.813 144.585 122.975 145.362L119.31 147.527L117.311 145.809L115.148 147.087ZM123.406 147.319C124.242 151.062 124.554 152.03 124.93 152.793C124.465 152.101 123.74 151.377 120.83 148.841L123.406 147.319Z" fill="#AE2456"/>
<path d="M112.509 160.391L114.354 154.204C114.581 155.027 114.902 155.828 116.147 158.932L118.3 158.068L114.071 147.525L111.918 148.389C113.187 151.552 113.544 152.443 114.003 153.328L108.428 149.788L105.815 150.837L112.001 154.613L109.984 161.404L112.509 160.391Z" fill="#AE2456"/>
<path d="M100.075 163.989L107.168 162.21L104.405 151.191L97.3127 152.97L97.8224 155.003L102.665 153.789L103.299 156.318L99.3102 157.318L99.8083 159.305L103.797 158.305L104.408 160.742L99.5656 161.956L100.075 163.989Z" fill="#AE2456"/>
<path d="M87.4732 154.159C89.8663 156.402 90.9842 157.468 91.6598 158.036C90.1706 158.252 88.2742 159.431 88.5562 161.943C88.8043 164.153 90.4735 165.254 92.9381 164.977L97.565 164.457L96.2978 153.168L93.9922 153.427C94.2885 156.067 94.4527 157.529 94.6585 158.215L90.2875 153.843L87.4732 154.159ZM90.8386 161.477C90.7261 160.476 91.3048 159.75 92.4973 159.617L94.6598 159.374L95.0257 162.633L92.8632 162.876C91.6707 163.01 90.9474 162.447 90.8386 161.477Z" fill="#AE2456"/>
<path d="M78.6881 165.298C80.3279 162.639 81.0654 161.37 81.3699 160.533C81.6084 161.407 82.2305 162.712 83.6764 165.49L86.3304 165.593L82.6259 158.693L82.8037 154.088L80.4854 153.998L80.3076 158.603L76.098 165.198L78.6881 165.298Z" fill="#AE2456"/>
<path d="M62.4908 153.662C61.8493 153.462 61.1575 153.799 60.9477 154.471C60.7476 155.113 61.1248 155.784 61.7663 155.984C62.4078 156.184 63.0997 155.847 63.2999 155.205C63.5096 154.533 63.1323 153.863 62.4908 153.662Z" fill="#AE2456"/>
<path d="M40.2771 147.005L44.3787 149.679L41.81 153.62L43.7535 154.887L49.9569 145.37L48.0133 144.103L45.497 147.963L41.3955 145.29L43.9117 141.429L41.9682 140.163L35.7648 149.679L37.7084 150.946L40.2771 147.005Z" fill="#AE2456"/>
<path d="M36.8205 135.449C34.3516 133.17 30.8815 133.32 28.5916 135.801C26.3017 138.281 26.4292 141.752 28.8981 144.031C31.3671 146.311 34.8371 146.16 37.127 143.68C39.4169 141.199 39.2895 137.728 36.8205 135.449ZM35.3446 137.048C36.8494 138.437 36.7897 140.625 35.4223 142.106C34.0549 143.587 31.879 143.822 30.3741 142.433C28.8575 141.033 28.9289 138.856 30.2964 137.374C31.6638 135.893 33.828 135.648 35.3446 137.048Z" fill="#AE2456"/>
<path d="M18.2335 131.873C22.0582 128.894 23.5477 127.734 24.2615 127.036L21.5369 136.114L22.8642 137.818L31.8265 130.838L30.4304 129.045C26.6561 131.985 25.1765 133.158 24.4655 133.833L27.1367 124.817L25.8095 123.113L16.8472 130.093L18.2335 131.873Z" fill="#AE2456"/>
<path d="M11.59 121.155L15.2393 127.491L25.0833 121.821L21.4341 115.485L19.6178 116.531L22.1092 120.857L19.8492 122.159L17.797 118.595L16.0223 119.617L18.0745 123.181L15.8977 124.434L13.4063 120.108L11.59 121.155Z" fill="#AE2456"/>
<path d="M7.87326 112.557C10.9711 112.958 12.4306 113.109 13.3187 113.042C12.6202 113.619 11.6865 114.723 9.74895 117.183L10.7469 119.644L15.5132 113.43L19.7836 111.699L18.9119 109.549L14.6415 111.28L6.89934 110.155L7.87326 112.557Z" fill="#AE2456"/>
<path d="M15.2894 96.7705C14.7871 94.081 13.0944 92.9486 11.1756 93.3069C9.79151 93.5655 8.85212 94.6361 8.86106 95.904C8.46841 95.1961 7.62845 94.6205 6.26012 94.8761C4.4514 95.2139 3.73183 96.7644 4.17542 99.1393L4.98033 103.449L16.1472 101.363L15.2894 96.7705ZM6.50465 100.804L6.12569 98.7751C5.96412 97.91 6.29581 97.2458 7.14512 97.0872C8.01016 96.9256 8.54351 97.4283 8.70508 98.2933L9.08404 100.322L6.50465 100.804ZM10.8141 99.9991L10.3764 97.6556C10.1767 96.5861 10.6293 95.7854 11.5573 95.6121C12.4381 95.4475 13.1335 96.0338 13.3392 97.1348L13.771 99.4468L10.8141 99.9991Z" fill="#AE2456"/>
<path d="M14.0189 81.1248L2.79176 85.6016L2.87327 88.2403L14.3538 91.9677L14.2797 89.5688C13.3428 89.2936 12.5188 89.0469 11.7592 88.8143L11.6278 84.5603L14.0965 83.6356L14.0189 81.1248ZM9.83686 88.2493C6.15405 87.1785 5.15561 86.9853 4.30604 86.9475C5.13616 86.8738 6.11978 86.5873 9.7445 85.2588L9.83686 88.2493Z" fill="#AE2456"/>
<path d="M3.62776 72.1979L8.15138 76.8053C7.32163 76.6057 6.46419 76.4995 3.14558 76.0881L2.86021 78.3905L14.1339 79.7878L14.4193 77.4855C11.0372 77.0663 10.0845 76.9482 9.08821 76.9214L14.8818 73.754L15.2282 70.9594L8.93095 74.5481L3.96233 69.4986L3.62776 72.1979Z" fill="#AE2456"/>
<path d="M6.43299 59.62L4.57408 66.6918L15.5608 69.5798L17.4198 62.508L15.3926 61.9751L14.1235 66.8031L11.6012 66.1401L12.6466 62.1632L10.6659 61.6426L9.62049 65.6195L7.19102 64.9808L8.46012 60.1528L6.43299 59.62Z" fill="#AE2456"/>
<path d="M21.1445 53.2118C18.0242 54.2227 16.5507 54.6861 15.7268 55.0029C16.258 53.595 16.1425 51.3651 13.8069 50.3978C11.7521 49.5467 9.98179 50.476 9.0328 52.7673L7.25113 57.0689L17.7465 61.4159L18.6343 59.2725C16.1804 58.2561 14.8205 57.6929 14.1211 57.5417L20.0608 55.8282L21.1445 53.2118ZM13.1113 52.6208C14.0425 53.0065 14.3976 53.8636 13.9384 54.9723L13.1057 56.9826L10.0754 55.7275L10.908 53.7171C11.3672 52.6085 12.2095 52.2473 13.1113 52.6208Z" fill="#AE2456"/>
<path d="M15.2948 40.6662C16.8455 43.3778 17.6068 44.6322 18.1961 45.2999C17.3146 45.0913 15.8711 45.0136 12.74 44.9549L11.3807 47.2367L19.2122 47.2833L23.1709 49.6416L24.3583 47.6485L20.3995 45.2902L16.6214 38.4394L15.2948 40.6662Z" fill="#AE2456"/>
<path d="M33.2699 31.9441C33.7536 31.4777 33.7902 30.7089 33.3015 30.2021C32.8351 29.7184 32.0654 29.727 31.5817 30.1935C31.098 30.66 31.0614 31.4288 31.5278 31.9125C32.0165 32.4193 32.7861 32.4106 33.2699 31.9441Z" fill="#AE2456"/>
<path d="M49.9076 15.4453L45.5947 17.7625L43.3684 13.6187L41.3247 14.7167L46.7012 24.7238L48.7449 23.6258L46.564 19.5666L50.8769 17.2494L53.0578 21.3086L55.1015 20.2106L49.725 10.2035L47.6813 11.3015L49.9076 15.4453Z" fill="#AE2456"/>
<path d="M61.7179 17.9236C64.9019 16.8503 66.4346 13.7335 65.3562 10.5343C64.2778 7.33521 61.171 5.78226 57.987 6.85554C54.803 7.92882 53.2704 11.0457 54.3488 14.2448C55.4271 17.444 58.534 18.9969 61.7179 17.9236ZM61.0229 15.8616C59.0822 16.5158 57.1912 15.4141 56.5472 13.5037C55.9032 11.5934 56.7414 9.57173 58.6821 8.91754C60.638 8.25824 62.5138 9.36503 63.1577 11.2754C63.8017 13.1858 62.9787 15.2023 61.0229 15.8616Z" fill="#AE2456"/>
<path d="M73.7944 3.33848C74.5565 8.12621 74.8533 9.99074 75.1198 10.9528L68.4852 4.18358L66.3521 4.52313L68.1379 15.7419L70.3816 15.3847C69.6296 10.6602 69.317 8.79821 69.0688 7.84943L75.675 14.5422L77.8081 14.2026L76.0224 2.98384L73.7944 3.33848Z" fill="#AE2456"/>
<path d="M86.3401 2.66838L79.0295 2.80949L79.2487 14.1674L86.5594 14.0263L86.5189 11.9307L81.5278 12.027L81.4775 9.41948L85.5887 9.34013L85.5492 7.29251L81.438 7.37186L81.3895 4.86033L86.3806 4.76399L86.3401 2.66838Z" fill="#AE2456"/>
<path d="M95.7134 3.51582C93.8738 6.04044 93.0409 7.24841 92.6729 8.05937C92.5024 7.16975 91.9825 5.82077 90.7547 2.93988L88.1165 2.63345L91.279 9.79816L90.7473 14.3754L93.0518 14.6431L93.5835 10.0658L98.2881 3.81486L95.7134 3.51582Z" fill="#AE2456"/>
<path d="M106.188 17.6263C108.788 18.4807 110.595 17.5422 111.205 15.6878C111.644 14.3502 111.158 13.0114 110.042 12.4089C110.852 12.4055 111.761 11.9464 112.195 10.624C112.77 8.87601 111.757 7.49893 109.462 6.74447L105.297 5.37545L101.75 16.1674L106.188 17.6263ZM106.882 7.98471L108.843 8.62925C109.679 8.90406 110.101 9.51452 109.831 10.3353C109.557 11.1713 108.859 11.3968 108.023 11.122L106.063 10.4775L106.882 7.98471ZM105.513 12.1495L107.778 12.8939C108.811 13.2337 109.295 14.0159 109 14.9127C108.721 15.7639 107.872 16.0913 106.808 15.7415L104.574 15.0071L105.513 12.1495Z" fill="#AE2456"/>
<path d="M120.336 23.9436L121.81 11.9471L119.458 10.7495L110.669 19.0228L112.807 20.1115C113.499 19.4224 114.112 18.8185 114.681 18.2645L118.474 20.195L118.098 22.8041L120.336 23.9436ZM116.101 16.8507C118.811 14.1367 119.46 13.3542 119.902 12.6275C119.568 13.3907 119.346 14.3909 118.767 18.2079L116.101 16.8507Z" fill="#AE2456"/>
<path d="M133.14 19.1043L126.924 20.8533C127.498 20.2219 128.004 19.5214 129.961 16.81L128.08 15.4521L121.431 24.663L123.312 26.0209C125.307 23.2576 125.869 22.4792 126.372 21.6187L126.361 28.2216L128.644 29.8698L128.528 22.6227L135.345 20.6963L133.14 19.1043Z" fill="#AE2456"/>
<path d="M142.694 27.47L137.375 22.452L129.579 30.7148L134.898 35.7327L136.336 34.2082L132.705 30.7824L134.495 28.8855L137.486 31.7073L138.891 30.2177L135.9 27.3958L137.624 25.5687L141.255 28.9945L142.694 27.47Z" fill="#AE2456"/>
<path d="M141.391 43.5498C141.994 40.3257 142.291 38.8099 142.406 37.9347C143.389 39.074 145.403 40.0381 147.369 38.4486C149.098 37.0502 149.128 35.051 147.569 33.1226L144.641 29.502L135.808 36.6447L137.266 38.4487C139.332 36.7788 140.476 35.8532 140.943 35.3111L139.61 41.3476L141.391 43.5498ZM145.749 36.7753C144.965 37.4091 144.042 37.3115 143.288 36.3783L141.919 34.6863L144.47 32.624L145.838 34.316C146.593 35.2491 146.507 36.1617 145.749 36.7753Z" fill="#AE2456"/>
<path d="M155.373 44.6756C152.249 44.7365 150.784 44.8033 149.915 45.0005C150.521 44.3268 151.281 43.0972 152.834 40.3775L151.483 38.0907L147.687 44.9413L143.72 47.2851L144.9 49.2826L148.867 46.9388L156.691 46.9072L155.373 44.6756Z" fill="#AE2456"/>
<path d="M154.286 64.3405C154.465 64.9884 155.122 65.3883 155.801 65.2016C156.449 65.0234 156.81 64.3434 156.631 63.6954C156.453 63.0475 155.795 62.6476 155.148 62.8258C154.469 63.0125 154.108 63.6925 154.286 64.3405Z" fill="#AE2456"/>
</svg>
