<svg width="25" height="24" viewBox="0 0 25 24" fill="none" xmlns="http://www.w3.org/2000/svg">
<g clip-path="url(#clip0_611_418)">
<path d="M12.7663 2.16094C15.9712 2.16094 16.3507 2.175 17.6111 2.23125C18.7825 2.28281 19.4151 2.47969 19.8368 2.64375C20.3944 2.85938 20.7973 3.12188 21.2143 3.53906C21.636 3.96094 21.8937 4.35938 22.1093 4.91719C22.2733 5.33906 22.4701 5.97656 22.5216 7.14375C22.5778 8.40937 22.5919 8.78906 22.5919 11.9906C22.5919 15.1969 22.5778 15.5766 22.5216 16.8375C22.4701 18.0094 22.2733 18.6422 22.1093 19.0641C21.8937 19.6219 21.6313 20.025 21.2143 20.4422C20.7926 20.8641 20.3944 21.1219 19.8368 21.3375C19.4151 21.5016 18.7778 21.6984 17.6111 21.75C16.346 21.8063 15.9665 21.8203 12.7663 21.8203C9.56135 21.8203 9.18182 21.8063 7.9214 21.75C6.75001 21.6984 6.11746 21.5016 5.69576 21.3375C5.13818 21.1219 4.73522 20.8594 4.31821 20.4422C3.89651 20.0203 3.6388 19.6219 3.42327 19.0641C3.25927 18.6422 3.06248 18.0047 3.01094 16.8375C2.95471 15.5719 2.94065 15.1922 2.94065 11.9906C2.94065 8.78438 2.95471 8.40469 3.01094 7.14375C3.06248 5.97187 3.25927 5.33906 3.42327 4.91719C3.6388 4.35938 3.90119 3.95625 4.31821 3.53906C4.73991 3.11719 5.13818 2.85938 5.69576 2.64375C6.11746 2.47969 6.7547 2.28281 7.9214 2.23125C9.18182 2.175 9.56135 2.16094 12.7663 2.16094ZM12.7663 0C9.5098 0 9.10216 0.0140625 7.823 0.0703125C6.54853 0.126563 5.67233 0.332812 4.91327 0.628125C4.12141 0.9375 3.45138 1.34531 2.78603 2.01562C2.116 2.68125 1.70835 3.35156 1.3991 4.13906C1.10391 4.90313 0.89775 5.775 0.841524 7.05C0.785297 8.33437 0.77124 8.74219 0.77124 12C0.77124 15.2578 0.785297 15.6656 0.841524 16.9453C0.89775 18.2203 1.10391 19.0969 1.3991 19.8563C1.70835 20.6484 2.116 21.3188 2.78603 21.9844C3.45138 22.65 4.12141 23.0625 4.90859 23.3672C5.67233 23.6625 6.54385 23.8687 7.81832 23.925C9.09747 23.9812 9.50512 23.9953 12.7616 23.9953C16.018 23.9953 16.4257 23.9812 17.7048 23.925C18.9793 23.8687 19.8555 23.6625 20.6146 23.3672C21.4017 23.0625 22.0718 22.65 22.7371 21.9844C23.4025 21.3188 23.8148 20.6484 24.1194 19.8609C24.4146 19.0969 24.6207 18.225 24.677 16.95C24.7332 15.6703 24.7472 15.2625 24.7472 12.0047C24.7472 8.74688 24.7332 8.33906 24.677 7.05938C24.6207 5.78438 24.4146 4.90781 24.1194 4.14844C23.8242 3.35156 23.4165 2.68125 22.7465 2.01562C22.0812 1.35 21.4111 0.9375 20.6239 0.632812C19.8602 0.3375 18.9887 0.13125 17.7142 0.075C16.4304 0.0140625 16.0227 0 12.7663 0Z" fill="#AE2456"/>
<path d="M12.7662 5.83594C9.36453 5.83594 6.60474 8.59688 6.60474 12C6.60474 15.4031 9.36453 18.1641 12.7662 18.1641C16.168 18.1641 18.9277 15.4031 18.9277 12C18.9277 8.59688 16.168 5.83594 12.7662 5.83594ZM12.7662 15.9984C10.5593 15.9984 8.76946 14.2078 8.76946 12C8.76946 9.79219 10.5593 8.00156 12.7662 8.00156C14.9731 8.00156 16.763 9.79219 16.763 12C16.763 14.2078 14.9731 15.9984 12.7662 15.9984Z" fill="#AE2456"/>
<path d="M20.6098 5.59214C20.6098 6.38902 19.9632 7.0312 19.1714 7.0312C18.3748 7.0312 17.7329 6.38433 17.7329 5.59214C17.7329 4.79526 18.3795 4.15308 19.1714 4.15308C19.9632 4.15308 20.6098 4.79995 20.6098 5.59214Z" fill="#AE2456"/>
</g>
<defs>
<clipPath id="clip0_611_418">
<rect width="23.9901" height="24" fill="white" transform="translate(0.77124)"/>
</clipPath>
</defs>
</svg>
