<?xml version="1.0" encoding="utf-8"?>
<!-- Generator: Adobe Illustrator 27.3.1, SVG Export Plug-In . SVG Version: 6.00 Build 0)  -->
<svg version="1.1" id="Слой_1" xmlns="http://www.w3.org/2000/svg" xmlns:xlink="http://www.w3.org/1999/xlink" x="0px" y="0px"
	 viewBox="0 0 127 61" style="enable-background:new 0 0 127 61;" xml:space="preserve">
<style type="text/css">
	.st0{fill:#FFFFFF;}
</style>
<g>
	<g>
		<path d="M30.3,26.9c0-8.6,7.1-9.9,10.6-9.5c0.9,0.1,3,0.4,3.9,0.4c1.2,0,1.6-1.2,4.7-5.6c3.1-4.4,3.9-5.6,3.9-8.4
			c0-2.2,2.6-2.8,3.9-2.8c0.9,0.1,2.5,0.9,1.6,2.8c-0.9,1.9-3.3,3.4-4.3,4c-1.7,3.2-5.5,10-7.1,11.9c-1.6,1.9-1.4,3.4-1.2,4
			c0.9,3.4,1.7,11.1-2.4,13.9c-4.1,2.9-8.5,2.3-10.2,1.6C32.7,38.6,30.3,35.4,30.3,26.9z"/>
		<path d="M37.3,40.2c-1.5,0-2.8-0.3-3.6-0.6c-1.4-0.7-3.8-4.1-3.8-12.8c0-3.3,1-5.9,3-7.7c2.4-2.2,5.8-2.6,8.1-2.4
			c1.1,0.2,3,0.4,3.9,0.4c0.6,0,0.9-0.5,2.3-2.5c0.5-0.8,1.2-1.7,2-2.8C52.2,7.5,53,6.4,53,3.8c0-2.6,2.9-3.3,4.4-3.3
			c0.8,0.1,1.7,0.5,2.1,1.3C59.7,2.2,59.9,3,59.4,4c-0.9,1.9-3.2,3.5-4.4,4.1c-1.8,3.4-5.5,10-7,11.9c-1.4,1.8-1.3,3.1-1.1,3.4
			c1,3.8,1.7,11.6-2.5,14.6C41.9,39.7,39.3,40.2,37.3,40.2z M39.8,17.7c-2,0-4.4,0.6-6.2,2.2c-1.8,1.6-2.7,3.9-2.7,6.9
			c0,8.5,2.3,11.5,3.2,11.9c1.7,0.6,5.8,1.2,9.7-1.5c3.8-2.7,3.1-9.9,2.2-13.4c-0.3-0.6-0.4-2.3,1.3-4.4c1.5-1.9,5.2-8.6,7-11.8
			l0.1-0.1l0.1-0.1c1-0.5,3.2-2,4.1-3.8c0.3-0.5,0.3-1,0.1-1.3c-0.2-0.4-0.8-0.7-1.3-0.8c0,0-3.3,0-3.3,2.3c0,2.9-0.8,4.2-4,8.6
			c-0.8,1.2-1.5,2.1-2,2.8c-1.5,2.2-2,2.9-3.1,2.9c-1,0-3-0.3-4-0.4C40.5,17.8,40.1,17.7,39.8,17.7z"/>
	</g>
	<g>
		<path d="M4.5,47.5c-1.6,0-1.2-17-0.8-25.5c0.6-1.6-1.3-8.6-2.4-11.9c-1.6-2.8,2.4-4.1,5.9-4.4c3.4-0.3,4.9,2.5,4.3,4.4
			c-0.4,1.2-1.4,4.8-2.4,9.5c-0.9,4.8,2.5,4.9,4.3,4.4l7.1-7.2c3.4-3.5,3.3,2,2.7,5.2c-0.7,2.5-2,8-2,9.5c0,2,2,2,5.9,2.4
			c3.1,0.3,2.4,2.8,1.6,3.6c-3.1,2.5-9.6,7.4-10.6,6.8c-1.2-0.8-0.8-3.2,0-6.8c0.6-2.9,1-7.6,1.2-9.5c-0.3-0.4-1.6-1.1-4.7-0.8
			c-3.1,0.3-6.3,11.5-7.4,17.1C7,45.4,6.1,47.5,4.5,47.5z"/>
		<path d="M4.5,48c-0.1,0-0.4,0-0.6-0.3C2.2,46,3,26,3.2,22.1l0-0.2c0.5-1.2-0.9-6.8-2.3-11.5C0.3,9.3,0.5,8.4,0.8,7.9
			c1-2,4.8-2.5,6.4-2.7c1.7-0.2,3.2,0.4,4.1,1.6c0.8,1,1.1,2.4,0.7,3.5c-0.4,1.2-1.4,4.8-2.3,9.5c-0.3,1.6-0.1,2.8,0.6,3.4
			c0.8,0.7,2.1,0.7,3,0.4l7-7.1c0.4-0.4,1.7-1.7,2.8-1.1c1.6,0.8,1.1,5,0.8,6.7c-0.8,3.1-2,8.1-2,9.5c0,1.3,1.1,1.5,4.4,1.8l1,0.1
			c1.7,0.2,2.4,1,2.6,1.6c0.4,1-0.1,2.2-0.7,2.8c-4.5,3.6-10,7.7-11.2,6.8c-1.5-1-1-3.5-0.2-7.3c0.6-2.7,1-7.1,1.2-9.3
			c-0.3-0.3-1.5-0.7-4.1-0.5c-2.3,0.2-5.3,8.8-7,16.7C7.4,45.8,6.3,48,4.5,48z M4.2,22.2C3.6,35,3.8,45.8,4.6,47
			c1.2-0.1,2-2,2.1-2.8c0.4-1.7,3.7-17.1,7.9-17.5c3.1-0.3,4.7,0.4,5.2,1l0.1,0.1l0,0.2c-0.1,2.1-0.6,6.8-1.2,9.6
			c-0.7,3-1.1,5.6-0.2,6.2c0.7,0.1,5.2-2.9,10-6.7c0.3-0.3,0.7-1.1,0.4-1.8c-0.2-0.7-1.1-0.9-1.8-0.9l-1-0.1
			c-3.3-0.3-5.3-0.5-5.3-2.8c0-2,1.9-9.4,2-9.7c0.5-3.2,0.3-5.4-0.3-5.6c-0.2-0.1-0.7,0.1-1.6,0.9l-7.1,7.3l-0.1,0
			c-1.3,0.4-3,0.4-4.1-0.6c-1-0.9-1.3-2.3-0.9-4.3c0.9-4.7,2-8.4,2.4-9.6c0.3-0.8,0-1.8-0.5-2.5C9.8,6.6,8.6,6.1,7.3,6.3
			C4.3,6.5,2.2,7.4,1.6,8.4C1.4,8.8,1.5,9.3,1.8,9.9l0,0.1C2.1,11,4.9,19.9,4.2,22.2z"/>
	</g>
	<g>
		<path d="M58.2,25.7c-0.3-1.9-6.8,0.9-7.1-0.8c-0.8-6.4,3.5-6,6.7-6c3.1,0,2,4,2.4,7.2c0.4,3.2,2.4,0.8,3.5-0.8
			c1.2-1.6,2.7-7.6,6.3-6.4c3.5,1.2,2.7,12.7,2.4,18.3c-0.4,5.6,2,6,3.5,6c1.3,0,2.9-5.8,3.5-8.7c-0.3-2,0.1-6.8,3.5-9.9
			c4.3-4,11.4-5.6,14.9-7.2c3.5-1.6,9.4-1.6,6.3,6.4c-3.1,8-11.4,8.4-18.4,8c-7.1-0.4-3.1,5.6,0,5.6c3.1,0,4.3,2,5.1,2.8
			c0.8,0.8,7.4,2,9.4-0.8c2-2.8,3.9-6.4,6.7-3.2c2.7,3.2-7.4,7.2-12.1,6.4c-4.7-0.8-14.1-2-15.3-8c0,2.8-0.4,10.3-4.7,12.3
			c-4.3,2-4.3-6-3.9-10.3c0.4-4.4-1.2-10.7-2.7-12.3S60.1,38.4,58.5,40c-1.6,1.6-1.2-2.8-0.4-6.8C58.9,29.2,58.5,28,58.2,25.7z"/>
	</g>
	<g>
		<path d="M117.3,17.7c-2.4-2-4.7-0.8-7.1,2.8c-0.3,1.1-0.6,4,0,7.2c0.8,4,3.9,9.1,5.9,10.3c2,1.2,2,4.8,0.8,8.4
			c-1.2,3.6-2.7,9.5-5.9,9.5c-3.1,0,0-4.8,0.4-8c0.4-3.2-2-2.4-2.7-1.6c-0.4,0.8-3.5,0.8-4.7,1.2c-1.2,0.4-2,3.2,1.2,2.4
			c3.1-0.8,2.7,1.6,3.1,3.6c0.4,2-1.2,9.9,4.3,6.8c5.5-3.2,6.7-16.3,6.7-19.5c0-3.2,1.2-6.4,3.1-8.7c2-2.4,6.3-10.3,3.9-14.3
			c-2.4-4-5.1,4.4-5.9,8c-0.8,3.6-0.8,6.8-4.3,7.6c-3.5,0.8-3.5-4.4-1.2-7.2C117.3,23.3,119.7,19.7,117.3,17.7z"/>
	</g>
	<g>
		<path class="st0" d="M33.9,29.7v-4c0-6,5.9-4,8.6-2.4c1.8,1.2,3.9,6-0.8,9.5S34.3,32.1,33.9,29.7z"/>
		<path d="M38.4,34.7c-0.6,0-1.1-0.1-1.5-0.3c-2.1-0.8-3.2-3.2-3.4-4.6l0-0.1v-4c0-2,0.6-3.3,1.8-4c2-1.2,5.3-0.1,7.5,1.2
			c1.1,0.7,2.3,2.6,2.3,4.7c0,1.5-0.4,3.8-3.1,5.7C40.6,34.3,39.4,34.7,38.4,34.7z M34.4,29.6c0.2,1.4,1.3,3.2,2.8,3.8
			c1.3,0.5,2.7,0.2,4.2-1c2.3-1.7,2.7-3.6,2.7-4.9c-0.1-1.8-1-3.3-1.8-3.9c-1.6-0.9-4.8-2.2-6.5-1.2c-0.9,0.5-1.3,1.6-1.3,3.2V29.6z
			"/>
	</g>
	<g>
		<path class="st0" d="M93.9,28c-2.3-0.2-3.7-2.3-4.1-3.4c0-1.8,2.2-2.6,4.9-3.6c2.7-1,4.1,1.4,4.3,3.6C99.2,26.8,96.9,28.2,93.9,28
			z"/>
	</g>
</g>
</svg>
