<svg width="11" height="7" viewBox="0 0 11 7" fill="none" xmlns="http://www.w3.org/2000/svg">
<path d="M1.80334 6.24996C2.00222 6.24996 2.19307 6.17094 2.3337 6.03031C2.47432 5.88969 2.55334 5.69884 2.55334 5.49996C2.55334 4.42819 3.12522 3.43781 4.05333 2.90193C4.98144 2.36604 6.12521 2.36604 7.05332 2.90193C7.98143 3.43781 8.55331 4.42819 8.55331 5.49996C8.55331 5.76798 8.69628 6.01557 8.92831 6.1495C9.16034 6.28343 9.44628 6.28343 9.67831 6.1495C9.91034 6.01557 10.0533 5.76797 10.0533 5.49996C10.0533 3.89231 9.19565 2.40672 7.80332 1.6028C6.41098 0.799065 4.69567 0.799065 3.30334 1.6028C1.911 2.40672 1.05334 3.89231 1.05334 5.49996C1.05334 5.69884 1.13236 5.88969 1.27299 6.03031C1.41361 6.17094 1.60446 6.24996 1.80334 6.24996Z" fill="#270813" stroke="#270813" stroke-width="0.4"/>
</svg>
