<svg width="19" height="17" viewBox="0 0 19 17" fill="none" xmlns="http://www.w3.org/2000/svg">
<path d="M18.338 13.2695L17.213 3.14455C17.1688 2.57232 16.9145 2.03661 16.4992 1.6407C16.0838 1.24477 15.5366 1.01627 14.963 0.999512H4.13307C3.55934 1.01625 3.01227 1.24477 2.59673 1.6407C2.18139 2.03662 1.92726 2.57232 1.88308 3.14455L0.758084 13.2695C0.677392 13.989 0.906407 14.7089 1.38804 15.2495C1.79401 15.7222 2.38498 15.9958 3.00807 15.9994H16.103C16.7261 15.9958 17.3171 15.7222 17.7231 15.2495C18.1993 14.7064 18.4228 13.9868 18.3381 13.2695H18.338ZM16.6055 14.2594C16.4816 14.4097 16.2976 14.4975 16.1029 14.4995H3.00795C2.81325 14.4975 2.62927 14.4097 2.50536 14.2594C2.31284 14.0302 2.22328 13.7319 2.25793 13.4344L3.38293 3.30946C3.38728 3.10622 3.46613 2.91152 3.60424 2.76235C3.74253 2.61318 3.93053 2.5196 4.13293 2.49951H14.9779C15.1803 2.5196 15.3683 2.61318 15.5066 2.76235C15.6447 2.91151 15.7235 3.10621 15.7279 3.30946L16.8529 13.4344C16.8875 13.7319 16.798 14.0302 16.6054 14.2594H16.6055Z" fill="#270813" stroke="#270813" stroke-width="0.4"/>
</svg>
