<svg width="169" height="169" viewBox="0 0 169 169" fill="none" xmlns="http://www.w3.org/2000/svg">
<path d="M160.414 92.4293L160.791 87.5478L165.481 87.9104L165.66 85.5973L154.334 84.7218L154.155 87.0349L158.75 87.39L158.372 92.2714L153.778 91.9163L153.599 94.2294L164.925 95.1049L165.104 92.7918L160.414 92.4293Z" fill="#AE2456"/>
<path d="M151.935 101.099C151.118 104.358 152.913 107.332 156.187 108.153C159.462 108.974 162.447 107.199 163.265 103.94C164.082 100.681 162.287 97.7069 159.012 96.8859C155.738 96.0649 152.752 97.8401 151.935 101.099ZM154.046 101.628C154.544 99.6419 156.493 98.6459 158.448 99.1362C160.404 99.6265 161.652 101.424 161.154 103.411C160.652 105.413 158.707 106.393 156.752 105.903C154.796 105.413 153.544 103.63 154.046 101.628Z" fill="#AE2456"/>
<path d="M157.701 119.109C153.257 117.171 151.527 116.416 150.573 116.122L159.85 114.182L160.714 112.202L150.302 107.66L149.393 109.742C153.778 111.655 155.515 112.395 156.448 112.698L147.25 114.655L146.386 116.635L156.799 121.177L157.701 119.109Z" fill="#AE2456"/>
<path d="M151.407 130.137L155.241 123.911L145.568 117.954L141.734 124.181L143.518 125.28L146.136 121.029L148.357 122.397L146.2 125.898L147.944 126.972L150.101 123.47L152.239 124.788L149.622 129.038L151.407 130.137Z" fill="#AE2456"/>
<path d="M145.752 137.372C144.613 134.463 144.043 133.111 143.557 132.365C144.399 132.699 145.815 132.987 148.905 133.501L150.582 131.442L142.841 130.254L139.268 127.344L137.803 129.143L141.376 132.053L144.115 139.381L145.752 137.372Z" fill="#AE2456"/>
<path d="M129.366 152.021C127.294 147.218 126.382 145.215 125.677 143.981C126.661 144.921 128.465 146.38 132.552 149.577L134.558 148.038C132.387 143.028 131.518 141.053 130.758 139.801C131.742 140.74 133.502 142.193 137.756 145.584L139.699 144.094L130.372 136.931L128.303 138.519C130.403 143.622 131.191 145.438 131.908 146.582C131.008 145.619 129.474 144.356 125.142 140.944L123.022 142.57L127.5 153.453L129.366 152.021Z" fill="#AE2456"/>
<path d="M117.635 145.655L123.232 155.541L125.251 154.398L119.654 144.512L117.635 145.655Z" fill="#AE2456"/>
<path d="M113.301 160.185C111.413 155.719 110.677 153.981 110.188 153.111L118.253 158.09L120.242 157.249L115.817 146.786L113.724 147.671C115.588 152.077 116.338 153.81 116.807 154.672L108.788 149.759L106.798 150.601L111.224 161.063L113.301 160.185Z" fill="#AE2456"/>
<path d="M100.754 152.181L103.076 161.149L100.194 161.895L100.72 163.924L108.728 161.851L108.203 159.822L105.322 160.568L103 151.599L100.754 152.181Z" fill="#AE2456"/>
<path d="M90.396 165.367L97.6524 164.467L96.2551 153.194L88.9986 154.093L89.2564 156.173L94.2105 155.559L94.5313 158.147L90.4506 158.653L90.7025 160.686L94.7832 160.18L95.0922 162.673L90.1381 163.287L90.396 165.367Z" fill="#AE2456"/>
<path d="M78.8026 154.091C80.9015 156.612 81.8798 157.807 82.4803 158.454C80.9759 158.485 78.9489 159.421 78.9196 161.949C78.8938 164.173 80.4149 165.471 82.8948 165.499L87.5504 165.553L87.682 154.194L85.3621 154.167C85.3314 156.823 85.3143 158.295 85.4342 159L81.6344 154.124L78.8026 154.091ZM81.2419 161.768C81.2535 160.76 81.9171 160.112 83.117 160.126L85.2929 160.151L85.2549 163.431L83.079 163.405C81.8791 163.392 81.2305 162.744 81.2419 161.768Z" fill="#AE2456"/>
<path d="M68.6362 152.569C70.3454 155.369 71.1389 156.694 71.6387 157.421C70.1459 157.232 68.004 157.864 67.6066 160.36C67.257 162.556 68.5727 164.062 71.0219 164.452L75.62 165.184L77.4058 153.965L75.1146 153.6C74.6971 156.223 74.4657 157.677 74.4814 158.392L71.433 153.014L68.6362 152.569ZM69.9305 160.519C70.089 159.524 70.8399 158.979 72.025 159.168L74.1739 159.51L73.6583 162.749L71.5094 162.407C70.3243 162.218 69.7771 161.483 69.9305 160.519Z" fill="#AE2456"/>
<path d="M58.8013 149.584C60.0891 152.6 60.6834 154.026 61.0731 154.818C59.6231 154.416 57.4126 154.732 56.6596 157.145C55.997 159.268 57.082 160.947 59.4494 161.686L63.894 163.073L67.2781 152.229L65.0635 151.538C64.2722 154.073 63.8337 155.478 63.7462 156.189L61.5047 150.427L58.8013 149.584ZM58.9362 157.637C59.2365 156.675 60.0581 156.244 61.2036 156.602L63.2808 157.25L62.3037 160.381L60.2265 159.733C59.081 159.375 58.6454 158.569 58.9362 157.637Z" fill="#AE2456"/>
<path d="M50.7064 145.656C47.5392 143.878 44.4479 145.005 42.8894 147.782C41.331 150.558 41.9789 153.784 45.1461 155.562L48.5644 157.481L54.1247 147.575L50.7064 145.656ZM47.5672 154.517L46.172 153.734C44.4 152.74 43.7378 151.01 44.9125 148.917C46.0872 146.825 47.9085 146.489 49.6805 147.484L51.0757 148.267L47.5672 154.517Z" fill="#AE2456"/>
<path d="M37.4194 136.449C37.5525 139.727 37.6019 141.271 37.6851 142.149C36.4723 141.259 34.2937 140.769 32.733 142.758C31.36 144.508 31.7782 146.463 33.7292 147.994L37.392 150.868L44.4051 141.932L42.58 140.499C40.9403 142.589 40.0316 143.747 39.6976 144.38L39.6472 138.198L37.4194 136.449ZM34.6866 144.027C35.3089 143.234 36.2299 143.123 37.1739 143.863L38.8858 145.207L36.8608 147.787L35.149 146.444C34.205 145.703 34.084 144.794 34.6866 144.027Z" fill="#AE2456"/>
<path d="M32.884 131.56C30.605 129.092 27.134 128.964 24.6533 131.254C22.1726 133.544 22.0225 137.014 24.3016 139.483C26.5806 141.952 30.0516 142.079 32.5323 139.789C35.013 137.499 35.1631 134.029 32.884 131.56ZM31.2851 133.036C32.6742 134.541 32.44 136.717 30.9587 138.085C29.4773 139.452 27.2896 139.512 25.9005 138.007C24.5005 136.49 24.7456 134.326 26.2269 132.959C27.7083 131.591 29.8851 131.52 31.2851 133.036Z" fill="#AE2456"/>
<path d="M18.8426 132.847L28.2906 126.539L27.0024 124.61L24.0216 126.6L22.8312 124.816C21.4186 122.701 19.1462 122.063 17.1368 123.405C15.0875 124.773 14.9514 127.018 16.2929 129.028L18.8426 132.847ZM22.2518 127.781L19.311 129.744L18.0494 127.855C17.4453 126.95 17.5334 125.929 18.4782 125.299C19.423 124.668 20.3862 124.987 20.9903 125.892L22.2518 127.781Z" fill="#AE2456"/>
<path d="M10.1276 103.464C9.81704 103.344 9.49877 103.259 9.28534 103.263C9.45601 103.154 9.70035 102.944 9.92912 102.672L10.8598 101.647L9.66386 100.628L8.79149 101.753C8.56661 102.041 8.39218 102.332 8.33409 102.495C8.29902 102.289 8.15912 101.994 7.99981 101.688L7.29271 100.447L5.96612 101.274L6.76244 102.477C6.9955 102.814 7.1897 103.062 7.32557 103.144C7.13929 103.124 6.81723 103.156 6.45638 103.23L5.12554 103.514L5.50297 105.019L6.79884 104.661C7.16742 104.552 7.46614 104.428 7.60966 104.343C7.52826 104.478 7.47414 104.789 7.42396 105.181L7.29295 106.566L8.8608 106.701L8.89864 105.273C8.89453 104.928 8.87878 104.602 8.81268 104.404C8.94082 104.52 9.22809 104.679 9.56581 104.842L10.8623 105.408L11.4395 103.96L10.1276 103.464Z" fill="#AE2456"/>
<path d="M8.16542 73.8212L7.6567 78.6907L2.97816 78.2019L2.7371 80.5094L14.0356 81.6898L14.2767 79.3823L9.69361 78.9035L10.2023 74.034L14.7854 74.5128L15.0265 72.2054L3.72794 71.025L3.48688 73.3324L8.16542 73.8212Z" fill="#AE2456"/>
<path d="M16.7761 65.7429C17.6672 62.5032 15.9407 59.4894 12.6856 58.594C9.43051 57.6986 6.4055 59.4055 5.51437 62.6451C4.62323 65.8848 6.34974 68.8986 9.60484 69.794C12.8599 70.6894 15.885 68.9826 16.7761 65.7429ZM14.678 65.1658C14.1348 67.1404 12.1639 68.0918 10.2201 67.5571C8.27634 67.0224 7.06927 65.1969 7.61244 63.2223C8.15985 61.2322 10.1265 60.2962 12.0703 60.8309C14.0141 61.3656 15.2254 63.1757 14.678 65.1658Z" fill="#AE2456"/>
<path d="M11.5026 47.4276C15.8942 49.4812 17.6044 50.281 18.5505 50.5997L9.22535 52.2975L8.31039 54.2541L18.6009 59.0662L19.5633 57.0081C15.2297 54.9816 13.5126 54.1964 12.5879 53.8699L21.8337 52.1527L22.7487 50.1961L12.4582 45.384L11.5026 47.4276Z" fill="#AE2456"/>
<path d="M18.0301 36.6016L14.0373 42.7272L23.554 48.9305L27.5468 42.805L25.7909 41.6604L23.065 45.8424L20.8801 44.4182L23.1256 40.9735L21.4099 39.8551L19.1644 43.2999L17.06 41.9282L19.786 37.7462L18.0301 36.6016Z" fill="#AE2456"/>
<path d="M24.0494 29.2808C25.1029 32.2214 25.6336 33.5894 26.0974 34.3497C25.2658 33.9905 23.8579 33.662 20.7852 33.0577L19.0485 35.0672L26.7516 36.48L30.238 39.4931L31.755 37.7378L28.2686 34.7247L25.7442 27.3197L24.0494 29.2808Z" fill="#AE2456"/>
<path d="M40.4351 15.3439C42.3836 20.1985 43.2437 22.224 43.9166 23.4756C42.9578 22.5111 41.1908 21.0067 37.1874 17.7063L35.1431 19.1934C37.1845 24.2573 38.0034 26.2535 38.7305 27.5251C37.7717 26.5606 36.0494 25.0632 31.8825 21.5652L29.9028 23.0052L39.0437 30.4036L41.1528 28.8694C39.1831 23.7137 38.4418 21.8787 37.7547 20.7165C38.63 21.7022 40.1311 23.0042 44.3745 26.5258L46.5353 24.954L42.3371 13.9603L40.4351 15.3439Z" fill="#AE2456"/>
<path d="M51.9044 22.005L46.5649 11.9781L44.5171 13.0685L49.8566 23.0955L51.9044 22.005Z" fill="#AE2456"/>
<path d="M56.7568 7.4824C58.5278 11.9953 59.2175 13.7529 59.6841 14.6354L51.7523 9.4463L49.7416 10.2354L53.8915 20.8102L56.0065 19.9803C54.2589 15.5269 53.5543 13.7752 53.1084 12.9018L60.996 18.0222L63.0068 17.2331L58.8569 6.65827L56.7568 7.4824Z" fill="#AE2456"/>
<path d="M69.0024 15.7909L66.9209 6.7638L69.8208 6.09512L69.3498 4.05271L61.2893 5.91137L61.7603 7.95378L64.6602 7.28509L66.7417 16.3122L69.0024 15.7909Z" fill="#AE2456"/>
<path d="M79.5788 2.83407L72.3035 3.56585L73.4404 14.8688L80.7157 14.137L80.5059 12.0516L75.539 12.5512L75.278 9.95625L79.3693 9.54472L79.1644 7.50701L75.073 7.91853L74.8216 5.41914L79.7885 4.91955L79.5788 2.83407Z" fill="#AE2456"/>
<path d="M90.8368 14.3372C88.7967 11.7688 87.8464 10.551 87.261 9.89031C88.7658 9.89457 90.8139 9.00516 90.9017 6.47869C90.9789 4.25603 89.4883 2.92346 87.0098 2.83733L82.3566 2.67564L81.9621 14.0288L84.2807 14.1094C84.373 11.455 84.4241 9.98384 84.3206 9.27582L88.0065 14.2388L90.8368 14.3372ZM88.5759 6.60599C88.5409 7.61338 87.8625 8.24621 86.6632 8.20453L84.4885 8.12896L84.6024 4.85094L86.7771 4.92651C87.9764 4.96818 88.6098 5.63058 88.5759 6.60599Z" fill="#AE2456"/>
<path d="M100.969 16.0469C99.3248 13.2089 98.5619 11.8658 98.0789 11.1269C99.567 11.3501 101.723 10.7683 102.177 8.28156C102.577 6.09382 101.297 4.55845 98.8571 4.11244L94.277 3.2751L92.234 14.4499L94.5162 14.8671C94.9938 12.2544 95.2586 10.8064 95.2593 10.0909L98.1834 15.5376L100.969 16.0469ZM99.8579 8.06893C99.6766 9.0605 98.9133 9.58782 97.7329 9.37201L95.5923 8.98068L96.1822 5.75416L98.3228 6.14549C99.5032 6.3613 100.033 7.10884 99.8579 8.06893Z" fill="#AE2456"/>
<path d="M110.793 19.2502C109.585 16.2006 109.029 14.7597 108.66 13.9576C110.099 14.398 112.317 14.1406 113.134 11.7481C113.852 9.64329 112.812 7.93578 110.465 7.13475L106.058 5.63088L102.389 16.382L104.585 17.1313C105.443 14.6177 105.918 13.2246 106.024 12.517L108.113 18.3355L110.793 19.2502ZM110.871 11.1956C110.545 12.1496 109.713 12.5585 108.577 12.1709L106.518 11.4681L107.577 8.36389L109.636 9.06672C110.772 9.45432 111.186 10.2719 110.871 11.1956Z" fill="#AE2456"/>
<path d="M118.94 23.3705C122.06 25.2293 125.18 24.1822 126.809 21.4468C128.439 18.7114 127.874 15.4698 124.754 13.611L121.386 11.6048L115.572 21.3643L118.94 23.3705ZM122.307 14.5928L123.681 15.4117C125.427 16.4516 126.044 18.1976 124.816 20.2595C123.588 22.3213 121.758 22.6098 120.013 21.5698L118.638 20.7509L122.307 14.5928Z" fill="#AE2456"/>
<path d="M132.097 32.9471C132.047 29.6675 132.037 28.1229 131.976 27.2422C133.166 28.1636 135.331 28.7083 136.942 26.76C138.359 25.046 137.991 23.0808 136.08 21.5005L132.492 18.5336L125.253 27.2887L127.041 28.767C128.733 26.72 129.671 25.5856 130.021 24.9615L129.914 31.1425L132.097 32.9471ZM135.022 25.442C134.379 26.2188 133.456 26.3064 132.531 25.5418L130.854 24.1552L132.944 21.6273L134.621 23.0139C135.546 23.7785 135.644 24.6898 135.022 25.442Z" fill="#AE2456"/>
<path d="M136.602 38.016C138.817 40.5421 142.284 40.7579 144.822 38.5318C147.36 36.3058 147.598 32.8407 145.383 30.3146C143.167 27.7884 139.701 27.5727 137.163 29.7987C134.624 32.0247 134.386 35.4899 136.602 38.016ZM138.238 36.5812C136.887 35.0415 137.177 32.8722 138.692 31.5429C140.208 30.2136 142.396 30.2096 143.747 31.7493C145.108 33.3011 144.808 35.4583 143.292 36.7876C141.776 38.1169 139.598 38.133 138.238 36.5812Z" fill="#AE2456"/>
<path d="M150.584 36.9259L140.977 42.9889L142.215 44.9509L145.246 43.038L146.39 44.8511C147.748 47.0025 150.004 47.6981 152.047 46.4087C154.13 45.0936 154.324 42.8523 153.035 40.8092L150.584 36.9259ZM147.046 41.9023L150.036 40.0151L151.249 41.9364C151.829 42.8565 151.715 43.8746 150.754 44.4809C149.794 45.0872 148.839 44.7437 148.258 43.8236L147.046 41.9023Z" fill="#AE2456"/>
<path d="M158.678 66.7529C158.986 66.8812 159.302 66.9748 159.515 66.9765C159.342 67.0807 159.092 67.2838 158.856 67.5494L157.898 68.5493L159.066 69.6006L159.968 68.4983C160.201 68.2171 160.383 67.9307 160.445 67.7692C160.475 67.9758 160.607 68.2742 160.758 68.5848L161.432 69.8445L162.78 69.0527L162.016 67.8295C161.792 67.4859 161.605 67.2326 161.471 67.1476C161.657 67.1718 161.979 67.1492 162.342 67.0848L163.68 66.8362L163.343 65.3213L162.038 65.6445C161.667 65.7436 161.365 65.8599 161.219 65.9416C161.304 65.8079 161.366 65.499 161.427 65.1085L161.595 63.727L160.031 63.5505L159.955 64.9771C159.95 65.3224 159.957 65.6487 160.018 65.8483C159.893 65.7286 159.61 65.562 159.277 65.3903L157.996 64.7903L157.38 66.2223L158.678 66.7529Z" fill="#AE2456"/>
<path d="M126.312 87.4178L110.193 95.4879L101.366 90.4562L114.032 83.9053L101.463 77.3544L110.194 72.3227L126.409 80.4874L129 75.4557L116.143 69.0003L125.162 63.874L122.284 58.937L113.265 64.0633L114.032 49.8227L108.275 49.5379L107.316 67.4811L98.4885 72.5128L99.0641 58.367L86.975 65.9621V55.9935L102.135 46.2149L98.9683 41.468L86.8792 49.2533V39H81.1221V49.2533L69.033 41.468L65.8668 46.2149L81.0263 55.9935L81.025 65.9621L68.9359 58.4624L69.5115 72.6083L60.7802 67.5766L59.8205 49.6334L54.0633 49.9181L54.831 64.1588L45.8119 59.0325L42.9333 63.9694L51.9524 69.0957L39.0958 75.5511L41.6865 80.5828L57.8052 72.5128L66.5364 77.5445L53.9676 84.0954L66.6329 90.6462L57.8058 95.6779L41.5907 87.5133L39 92.545L51.8566 99.0004L42.8375 104.127L45.7161 109.064L54.7352 103.937L53.9676 118.178L59.7247 118.463L60.6844 100.52L69.4157 95.4878L68.8401 109.538L80.9292 101.943V112.006L65.7697 121.785L68.9359 126.532L81.025 118.747V129H86.7821V118.747L98.8712 126.532L102.037 121.785L86.8779 112.006V102.038L98.967 109.538L98.3914 95.487L107.123 100.519L108.082 118.462L113.84 118.177L113.072 103.936L122.091 109.063L124.97 104.126L115.95 98.9996L128.807 92.5441L126.312 87.4178ZM101.75 84.0001L95.5137 87.2278L89.9488 84.0001L95.6094 80.7724L101.75 84.0001ZM92.9228 68.9052L92.635 75.8354L86.9743 79.0632L86.9737 72.6077L92.9228 68.9052ZM75.3646 68.9052L81.3131 72.6077V79.0632L75.6524 75.8354L75.3646 68.9052ZM66.6333 84.0001L72.7739 80.7724L78.4345 84.0001L72.8696 87.2278L66.6333 84.0001ZM75.3646 99.0002L75.6524 92.1647L81.313 88.937V95.2978L75.3646 99.0002ZM92.9228 99.0002L87.07 95.2977V88.8423L92.7307 92.07L92.9228 99.0002Z" fill="#AE2456"/>
</svg>
